# xmcd CD database file
#
# Track frame offsets:
#	150
#	23393
#	45073
#	68031
#	79603
#	93156
#	111221
#	123603
#	155793
#	180361
#	200091
#	215401
#	235398
#	260598
#	271293
#	292083
#	311606
#
# Disc length: 4315 seconds
#
# Revision: 0
# Processed by: cddbd v1.5.1PL2 Copyright (c) Steve Scherf et al.
# Submitted via: Feurio! 1.68 - http://www.feurio.com
#
DISCID=ea10d911
DTITLE=Capital Blues Duo - Better World
DYEAR=1900
DGENRE=Blues
TTITLE0=Riot
TTITLE1=Downtown Blues
TTITLE2=The Sky Is Crying
TTITLE3=Woke Up This Morning
TTITLE4=Let The Good Times Roll
TTITLE5=Tomcat
TTITLE6=Swing For Dr. Ross
TTITLE7=So Hard To Forgive You
TTITLE8=Ol'time Boogie
TTITLE9=Acid-H
TTITLE10=Easy By My Side
TTITLE11=Sittin' Thinkin'
TTITLE12=Better World
TTITLE13=Peace To The World
TTITLE14=Good Time Charly
TTITLE15=Running 'round
TTITLE16=Hooray, Hooray This Woman Is Killing Me
EXTD=
EXTT0=
EXTT1=
EXTT2=
EXTT3=
EXTT4=
EXTT5=
EXTT6=
EXTT7=
EXTT8=
EXTT9=
EXTT10=
EXTT11=
EXTT12=
EXTT13=
EXTT14=
EXTT15=
EXTT16=
PLAYORDER=
